<?xml version="1.0" encoding="iso-8859-1"?>
<!-- Generator: Adobe Illustrator 29.4.0, SVG Export Plug-In . SVG Version: 9.03 Build 0)  -->
<svg version="1.1" id="&#x56FE;&#x5C42;_1" xmlns="http://www.w3.org/2000/svg" xmlns:xlink="http://www.w3.org/1999/xlink" x="0px"
	 y="0px" viewBox="0 0 500 800" style="enable-background:new 0 0 500 800;" xml:space="preserve">
<polygon style="stroke:#000000;stroke-miterlimit:10;" points="250,560 100,800 0,800 250,402.818 500,800 400,800 "/>
<g>
	<path d="M250,349.5c-27.294,0-49.5-22.206-49.5-49.5s22.206-49.5,49.5-49.5c27.294,0,49.5,22.206,49.5,49.5
		S277.294,349.5,250,349.5z"/>
	<path d="M250,251c27.019,0,49,21.981,49,49s-21.981,49-49,49s-49-21.981-49-49S222.981,251,250,251 M250,250
		c-27.614,0-50,22.386-50,50s22.386,50,50,50s50-22.386,50-50S277.614,250,250,250L250,250z"/>
</g>
</svg>
