<?xml version="1.0" encoding="iso-8859-1"?>
<!-- Generator: Adobe Illustrator 29.4.0, SVG Export Plug-In . SVG Version: 9.03 Build 0)  -->
<svg version="1.1" id="&#x56FE;&#x5C42;_1" xmlns="http://www.w3.org/2000/svg" xmlns:xlink="http://www.w3.org/1999/xlink" x="0px"
	 y="0px" viewBox="0 0 800 800" style="enable-background:new 0 0 800 800;" xml:space="preserve">
<g>
	<rect x="0.364" y="530.984" width="49" height="269"/>
	<path d="M48.864,531.485v268h-48v-268H48.864 M49.864,530.485h-50v270h50V530.485L49.864,530.485z"/>
</g>
<g>
	<rect x="175.364" y="400.985" width="49" height="399"/>
	<path d="M223.864,401.485v398h-48v-398H223.864 M224.864,400.485h-50v400h50V400.485L224.864,400.485z"/>
</g>
<g>
	<rect x="350.364" y="530.984" width="49" height="269"/>
	<path d="M398.864,531.485v268h-48v-268H398.864 M399.864,530.485h-50v270h50V530.485L399.864,530.485z"/>
</g>
<g>
	<rect x="0.364" y="400.985" width="399" height="9"/>
	<path d="M398.864,401.485v8h-398v-8H398.864 M399.864,400.485h-400v10h400V400.485L399.864,400.485z"/>
</g>
<g>
	<rect x="0.364" y="790.984" width="399" height="9"/>
	<path d="M398.864,791.485v8h-398v-8H398.864 M399.864,790.485h-400v10h400V790.485L399.864,790.485z"/>
</g>
<g>
	<rect x="0.364" y="530.984" width="399" height="9"/>
	<path d="M398.864,531.485v8h-398v-8H398.864 M399.864,530.485h-400v10h400V530.485L399.864,530.485z"/>
</g>
</svg>
